**ABCDEFGHIJKLMNOPQRSTUVWXYZabcdefghijklmnopqrstuvwxyz**************************
**PARASOLID !"#$%&'()*+,-./:;<=>?@[\]^_`{|}~0123456789**************************
**PART1;
MC=AMD64;
MC_MODEL=Intel64 Family 6 Model 44 Stepping 2, GenuineIntel;
MC_ID=unknown;
OS=Windows_NT;
OS_RELEASE=unknown;
FRU=Parasolid Version 24.0, build 216,  1-13-2012;
APPL=SolidWorks 2012-2012159;
SITE=;
USER=unknown;
FORMAT=text;
GUISE=transmit;
KEY=naca 0012 (400);
FILE=naca 0012 (400).x_t;
DATE=Thu Jul 26 16:54:52 2012;
**PART2;
SCH=SCH_2400216_20000;
USFLD_SIZE=0;
**PART3;
**END_OF_HEADER*****************************************************************
T51 : TRANSMIT FILE created by modeller version 240021615 SCH_800000_80080 12 1
 117 2 3 0 0 0 4 1e3 1e-8 0 5 0 2 0 1 6 7 8 9 10 11 12 81 2 2 82 13 1 0 0 0 0 14
 0 70 3 0 1 0 0 4 3 20 8 15 15 1 102 15 4 naca 0012 (400)13 6 54 0 1 0 16 0 0 17
 0 67 7 53 0 16 18 0 0 +19 0 0 -1 ?30 8 51 0 11 20 0 0 +.2328662538311215 -.0005
06444801474064 1.342399999486568 0 0 -1 29 9 42 0 21 22 0 .2328662538311215 .000
500916612478551 -1.324266666156568 19 10 16 0 1 17 0 23 V16 11 45 0 ?24 0 25 8 0
 0 1 18 12 13 0 26 0 27 28 ?1 17 26 29 30 30 12 31 32 0 33 +18 27 10 0 31 12 21
 34 ?1 29 28 15 0 12 34 22 .2328662538311215 .000500916612478551 1.3423999994865
68 29 34 12 0 27 0 28 .2328662538311215 -.000506444801474064 1.342399999486568 2
9 22 43 0 35 28 9 .2328662538311215 -.000506444801474064 -1.324266666156568 18 3
5 38 0 36 21 0 22 ?1 17 36 37 38 38 35 39 40 0 24 -18 21 37 0 39 27 35 9 ?1 17 3
9 41 33 24 21 36 40 0 42 +15 41 46 0 39 43 0 17 33 41 31 39 12 42 25 0 44 -17 24
 41 39 31 35 45 11 0 46 +16 40 29 0 ?39 47 48 49 0 0 1 17 42 50 46 44 21 33 25 0
 38 +15 50 48 0 46 16 0 17 46 50 45 42 35 38 48 0 0 +17 44 50 42 45 12 30 47 0 0
 -16 25 44 0 ?42 11 32 20 0 0 1 17 38 37 36 36 21 46 48 0 0 -15 37 28 0 38 51 0
 16 48 33 0 ?46 40 0 52 0 0 1 134 52 41 0 48 53 49 0 +54 55 30 53 8 0 32 19 52 0
 +.2328662538311215 .000500916612478551 1.342399999486568 0 1 0 30 49 40 0 40 52
 20 0 +.2328662538311215 .000500916612478551 -1.324266666156568 0 1 0 136 54 3 7
1 3 69 6 FFF1 56 57 58 135 55 2 45 213 56 .2328662538311215 .000500916612478551
 -1.324266666156568 .2317956769973565 .000651127468933187 -1.324266666156568 .22
9395002209651 .000986293957789664 -1.324266666156568 .225146952232983 .001572831
389478275 -1.324266666156568 .2196201628368815 .002324909938299325 -1.3242666661
56568 .212590817309366 .003263433919865285 -1.324266666156568 .2041154888414055
 .004369087067119595 -1.324266666156568 .194262376677504 .00562016194522928 -1.3
24266666156568 .18311079459666 .00699328594617791 -1.324266666156568 .1707505150
007765 .00846406044538994 -1.324266666156568 .157281089772989 .01000741800615676
 -1.324266666156568 .1428109702971038 .01159781537822564 -1.324266666156568 .127
456695084588 .01320916281288316 -1.324266666156568 .1113418834659098 .0148146617
677563 -1.324266666156568 .09459630311057 .01638644575624025 -1.324266666156568
 .0773547450982217 .01789537468333815 -1.324266666156568 .0597559987637318 .0193
1085902636205 -1.324266666156568 .04194169272892835 .0206009870386848 -1.3242666
66156568 .0240551617993761 .02173288581923575 -1.324266666156568 .00624030063446
749 .02267349623781135 -1.324266666156568 -.0113595942861753 .02339058504987375
 -1.324266666156568 -.0286029764276574 .02385408412240165 -1.324266666156568 -.0
453511713535463 .02403753765711385 -1.324266666156568 -.061469518302058 .0239196
0077209165 -1.324266666156568 -.0768284294563699 .02348535285587945 -1.324266666
156568 -.0913045161349551 .02272736176718805 -1.324266666156568 -.10478163734529
72 .02164627056208475 -1.324266666156568 -.1171519734549454 .02025090199957175 -
1.324266666156568 -.1283172215865946 .01855770185925995 -1.324266666156568 -.138
1897032662854 .0165897546127035 -1.324266666156568 -.1466948014037368 .014374898
8901102 -1.324266666156568 -.1537719663242615 .01194349033570996 -1.324266666156
568 -.1593861536902215 .00932148620897748 -1.324266666156568 -.1635209852240655
 .00651649458256755 -1.324266666156568 -.1662089837448805 .003453412496422975 -1
.324266666156568 -.16718704679544 -27640944977511e-19 -1.324266666156568 -.16620
89837448805 -.00345894068541854 -1.324266666156568 -.163520985224066 -.006522022
771563 -1.324266666156568 -.1593861536902215 -.00932701439797301 -1.324266666156
568 -.1537719663242615 -.0119490185247055 -1.324266666156568 -.1466948014037368
 -.0143804270791057 -1.324266666156568 -.1381897032662856 -.016595282801699 -1.3
24266666156568 -.1283172215865944 -.0185632300482555 -1.324266666156568 -.117151
9734549454 -.02025643018856725 -1.324266666156568 -.1047816373452972 -.021651798
7510803 -1.324266666156568 -.0913045161349552 -.02273288995618355 -1.32426666615
6568 -.0768284294563699 -.023490881044875 -1.324266666156568 -.061469518302058 -
.02392512896108715 -1.324266666156568 -.0453511713535464 -.0240430658461094 -1.3
24266666156568 -.02860297642765745 -.02385961231139715 -1.324266666156568 -.0113
5959428617524 -.02339611323886925 -1.324266666156568 .00624030063446746 -.022679
0244268069 -1.324266666156568 .02405516179937615 -.02173841400823125 -1.32426666
6156568 .0419416927289283 -.0206065152276803 -1.324266666156568 .059755998763731
8 -.0193163872153576 -1.324266666156568 .0773547450982216 -.0179009028723337 -1.
324266666156568 .09459630311057 -.0163919739452358 -1.324266666156568 .111341883
4659096 -.0148201899567518 -1.324266666156568 .1274566950845882 -.01321469100187
866 -1.324266666156568 .1428109702971038 -.01160334356722116 -1.324266666156568
 .157281089772989 -.01001294619515226 -1.324266666156568 .170750515000777 -.0084
6958863438545 -1.324266666156568 .18311079459666 -.00699881413517341 -1.32426666
6156568 .194262376677504 -.0056256901342248 -1.324266666156568 .2041154888414055
 -.0043746152561151 -1.324266666156568 .212590817309366 -.003268962108860795 -1.
324266666156568 .2196201628368815 -.00233043812729485 -1.324266666156568 .225146
952232983 -.001578359578473775 -1.324266666156568 .229395002209651 -.00099182214
6785186 -1.324266666156568 .2317956769973565 -.000656655657928679 -1.32426666615
6568 .2328662538311215 -.000506444801474064 -1.324266666156568 127 69 57 4 1 1 1
 1 1 1 1 1 1 1 1 1 1 1 1 1 1 1 1 1 1 1 1 1 1 1 1 1 1 1 1 1 1 1 1 1 1 1 1 1 1 1 1
 1 1 1 1 1 1 1 1 1 1 1 1 1 1 1 1 1 1 1 1 1 1 1 1 4 128 69 58 0 .0039791699638881
85 .00892208663379878 .0157845228017401 .02450960283984195 .03502521087460505 .0
472447288994252 .0610679656361602 .0763817594789821 .0930611724980106 .110970353
604212 .1299637972393266 .1498871911427922 .1705789844441045 .191871354961741 .2
135918930834875 .2355649021387475 .2576130552097865 .2795591540747485 .301227674
2526005 .3224465685240805 .343049061724476 .362875019298495 .3817726711603165 .3
995998838019715 .416225585455761 .4315311258418215 .4454119976801455 .4577803022
28767 .468568679449729 .477737773522224 .485291259810807 .49130975119699 .496030
455821376 .5 .503969544178624 .50869024880301 .514708740189193 .522262226477775
 .531431320550271 .542219697771233 .554588002319854 .568468874158178 .5837744145
44239 .600400116198029 .618227328839683 .637124980701505 .656950938275524 .67755
3431475919 .698772325747399 .720440845925251 .742386944790213 .764435097861252 .
786408106916512 .808128645038259 .829421015555896 .850112808857208 .870036202760
673 .889029646395788 .906938827501989 .923618240521018 .93893203436384 .95275527
1100575 .964974789125395 .975490397160158 .98421547719826 .991077913366201 .9960
20830036112 1 30 20 50 0 25 49 8 0 +.2328662538311215 .000500916612478551 1.3423
99999486568 0 0 -1 16 32 7 0 ?26 25 47 53 0 0 1 134 19 5 0 47 0 53 59 +60 61 16
 47 4 0 ?30 32 40 19 0 0 1 141 59 7 59 59 19 136 60 3 71 3 69 6 FFF1 62 63 64 13
5 61 2 45 213 62 .2328662538311215 .000500916612478551 1.342399999486568 .231795
6769973565 .000651127468933187 1.342399999486568 .229395002209651 .0009862939577
89664 1.342399999486568 .225146952232983 .001572831389478275 1.342399999486568 .
2196201628368815 .002324909938299325 1.342399999486568 .212590817309366 .0032634
33919865285 1.342399999486568 .2041154888414055 .004369087067119595 1.3423999994
86568 .194262376677504 .00562016194522928 1.342399999486568 .18311079459666 .006
99328594617791 1.342399999486568 .1707505150007765 .00846406044538994 1.34239999
9486568 .157281089772989 .01000741800615676 1.342399999486568 .1428109702971038
 .01159781537822564 1.342399999486568 .127456695084588 .01320916281288316 1.3423
99999486568 .1113418834659098 .0148146617677563 1.342399999486568 .0945963031105
7 .01638644575624025 1.342399999486568 .0773547450982217 .01789537468333815 1.34
2399999486568 .0597559987637318 .01931085902636205 1.342399999486568 .0419416927
2892835 .0206009870386848 1.342399999486568 .0240551617993761 .02173288581923575
 1.342399999486568 .00624030063446749 .02267349623781135 1.342399999486568 -.011
3595942861753 .02339058504987375 1.342399999486568 -.0286029764276574 .023854084
12240165 1.342399999486568 -.0453511713535463 .02403753765711385 1.3423999994865
68 -.061469518302058 .02391960077209165 1.342399999486568 -.0768284294563699 .02
348535285587945 1.342399999486568 -.0913045161349551 .02272736176718805 1.342399
999486568 -.1047816373452972 .02164627056208475 1.342399999486568 -.117151973454
9454 .02025090199957175 1.342399999486568 -.1283172215865946 .01855770185925995
 1.342399999486568 -.1381897032662854 .0165897546127035 1.342399999486568 -.1466
948014037368 .0143748988901102 1.342399999486568 -.1537719663242615 .01194349033
570996 1.342399999486568 -.1593861536902215 .00932148620897748 1.342399999486568
 -.1635209852240655 .00651649458256755 1.342399999486568 -.1662089837448805 .003
453412496422975 1.342399999486568 -.16718704679544 -27640944977511e-19 1.3423999
99486568 -.1662089837448805 -.00345894068541854 1.342399999486568 -.163520985224
066 -.006522022771563 1.342399999486568 -.1593861536902215 -.00932701439797301 1
.342399999486568 -.1537719663242615 -.0119490185247055 1.342399999486568 -.14669
48014037368 -.0143804270791057 1.342399999486568 -.1381897032662856 -.0165952828
01699 1.342399999486568 -.1283172215865944 -.0185632300482555 1.342399999486568
 -.1171519734549454 -.02025643018856725 1.342399999486568 -.1047816373452972 -.0
216517987510803 1.342399999486568 -.0913045161349552 -.02273288995618355 1.34239
9999486568 -.0768284294563699 -.023490881044875 1.342399999486568 -.061469518302
058 -.02392512896108715 1.342399999486568 -.0453511713535464 -.0240430658461094
 1.342399999486568 -.02860297642765745 -.02385961231139715 1.342399999486568 -.0
1135959428617524 -.02339611323886925 1.342399999486568 .00624030063446746 -.0226
790244268069 1.342399999486568 .02405516179937615 -.02173841400823125 1.34239999
9486568 .0419416927289283 -.0206065152276803 1.342399999486568 .0597559987637318
 -.0193163872153576 1.342399999486568 .0773547450982216 -.0179009028723337 1.342
399999486568 .09459630311057 -.0163919739452358 1.342399999486568 .1113418834659
096 -.0148201899567518 1.342399999486568 .1274566950845882 -.01321469100187866 1
.342399999486568 .1428109702971038 -.01160334356722116 1.342399999486568 .157281
089772989 -.01001294619515226 1.342399999486568 .170750515000777 -.0084695886343
8545 1.342399999486568 .18311079459666 -.00699881413517341 1.342399999486568 .19
4262376677504 -.0056256901342248 1.342399999486568 .2041154888414055 -.004374615
2561151 1.342399999486568 .212590817309366 -.003268962108860795 1.34239999948656
8 .2196201628368815 -.00233043812729485 1.342399999486568 .225146952232983 -.001
578359578473775 1.342399999486568 .229395002209651 -.000991822146785186 1.342399
999486568 .2317956769973565 -.000656655657928679 1.342399999486568 .232866253831
1215 -.000506444801474064 1.342399999486568 127 69 63 4 1 1 1 1 1 1 1 1 1 1 1 1
 1 1 1 1 1 1 1 1 1 1 1 1 1 1 1 1 1 1 1 1 1 1 1 1 1 1 1 1 1 1 1 1 1 1 1 1 1 1 1 1
 1 1 1 1 1 1 1 1 1 1 1 1 1 1 1 4 128 69 64 0 .003979169963888185 .00892208663379
878 .0157845228017401 .02450960283984195 .03502521087460505 .0472447288994252 .0
610679656361602 .0763817594789821 .0930611724980106 .110970353604212 .1299637972
393266 .1498871911427922 .1705789844441045 .191871354961741 .2135918930834875 .2
355649021387475 .2576130552097865 .2795591540747485 .3012276742526005 .322446568
5240805 .343049061724476 .362875019298495 .3817726711603165 .3995998838019715 .4
16225585455761 .4315311258418215 .4454119976801455 .457780302228767 .46856867944
9729 .477737773522224 .485291259810807 .49130975119699 .496030455821376 .5 .5039
69544178624 .50869024880301 .514708740189193 .522262226477775 .531431320550271 .
542219697771233 .554588002319854 .568468874158178 .583774414544239 .600400116198
029 .618227328839683 .637124980701505 .656950938275524 .677553431475919 .6987723
25747399 .720440845925251 .742386944790213 .764435097861252 .786408106916512 .80
8128645038259 .829421015555896 .850112808857208 .870036202760673 .88902964639578
8 .906938827501989 .923618240521018 .93893203436384 .952755271100575 .9649747891
25395 .975490397160158 .98421547719826 .991077913366201 .996020830036112 1 17 30
 29 26 26 27 44 47 0 45 +15 29 3 0 30 65 0 17 45 50 44 46 27 24 11 0 0 -14 65 1
 66 ?51 43 29 6 67 -0 0 51 43 23 81 1 66 114 68 65 69 0 0 70 71 14 51 27 70 ?0 6
5 37 6 72 +0 0 0 65 23 14 43 47 73 ?65 16 41 6 18 -0 0 65 16 23 50 67 2 0 65 0 7
2 0 +-.166880370020053 -27640944978927e-19 1.342399999486568 0 0 -1 -1 0 0 13 23
 17 0 0 0 0 0 0 10 16 14 16 49 74 ?43 0 50 6 7 -0 0 43 0 23 81 1 74 117 68 16 75
 0 73 0 76 80 1 68 77 78 9000 1 1 1 1 1 1 1 1 FFFFTFTFFFFFF1 81 1 75 100 79 16 0
 74 0 80 81 81 1 73 116 68 43 80 0 70 74 82 82 1 76 -875953965 81 1 80 101 79 43
 0 73 75 69 83 81 1 70 115 68 51 84 0 66 73 85 82 1 82 -876216109 81 1 84 103 79
 51 0 70 69 0 86 82 1 85 -877723437 80 1 79 0 87 8001 0 0 0 0 3 5 0 0 FFFFTFTFFF
FFF2 81 1 69 102 79 65 0 66 80 84 88 83 3 86 .792156862745098 .819607843137255 .
933333333333333 83 3 88 .792156862745098 .819607843137255 .933333333333333 79 15
 87 SDL/TYSA_COLOUR83 3 83 .792156862745098 .819607843137255 .933333333333333 83
 3 81 .792156862745098 .819607843137255 .933333333333333 79 14 78 SWEntUnchanged
50 72 39 0 51 67 18 0 +-.166880370020053 -27640944978927e-19 -1.324266666156568
 0 0 -1 -1 0 0 50 18 52 0 43 72 7 0 +.2328662538311215 .000500916612478551 1.342
399999486568 -1 0 0 0 0 1 82 1 71 -880017197 17 31 41 24 33 27 26 32 0 30 -19 17
 55 0 1 0 10 6 S74 20 15 3 0 2 74 84 0 0 0 0 0 0 0 0 0 0 0 0 0 0 0 0 0 80 2 13 8
9 90 8004 0 0 0 0 3 5 0 0 FFTFFFFFFFFFF2 3 83 1 14 1e3 79 16 90 SDL/TYSA_DENSITY
1 0 
